<svg xmlns="http://www.w3.org/2000/svg" version="1.1" xmlns:xlink="http://www.w3.org/1999/xlink" xmlns:svgjs="http://svgjs.dev/svgjs" width="1500" height="261" viewBox="0 0 1500 261"><g transform="matrix(1,0,0,1,1.0277557476840684,0.5349619726903825)"><svg viewBox="0 0 396 69" data-background-color="#815050" preserveAspectRatio="xMidYMid meet" height="261" width="1500" xmlns="http://www.w3.org/2000/svg" xmlns:xlink="http://www.w3.org/1999/xlink"><g id="tight-bounds" transform="matrix(1,0,0,1,0.2400000000000091,-0.141426728412398)"><svg viewBox="0 0 395.52 69.2828534568248" height="69.2828534568248" width="395.52"><g><svg viewBox="0 0 472.01356199161523 82.68215626289181" height="69.2828534568248" width="395.52"><g transform="matrix(1,0,0,1,76.49356199161528,11.427128687563197)"><svg viewBox="0 0 395.52 59.827898887765414" height="59.827898887765414" width="395.52"><g id="textblocktransform"><svg viewBox="0 0 395.52 59.827898887765414" height="59.827898887765414" width="395.52" id="textblock"><g><svg viewBox="0 0 395.52 59.827898887765414" height="59.827898887765414" width="395.52"><g transform="matrix(1,0,0,1,0,0)"><svg width="395.52" viewBox="1.6 -36.4 247.23000000000002 37.4" height="59.827898887765414" data-palette-color="#000000"><path d="M7.8-30.95Q6.5-30.95 6-30.5L6-30.5Q5.45-30.05 5.35-28.85L5.35-28.85 1.6-28.9Q1.6-31.9 3.45-33.5L3.45-33.5Q4.95-34.85 7.85-34.85L7.85-34.85 19.1-34.85Q22-34.85 24.38-33.65 26.75-32.45 28.1-30.35 29.45-28.25 29.45-25.55L29.45-25.55Q29.45-23.15 28.4-21.4 27.35-19.65 25.45-18.75L25.45-18.75Q24.85-18.45 23.7-18.2L23.7-18.2Q24.35-18.2 25.43-17.85 26.5-17.5 27.6-16.9L27.6-16.9Q29.1-16.1 30.03-14.2 30.95-12.3 30.95-9.4L30.95-9.4Q30.95-4.45 27.3-1.98 23.65 0.5 17.6 0.5L17.6 0.5 15.95 0.5Q13.3 0.5 10.9 0.25L10.9 0.25 7.8-0.1 7.8-30.95ZM17.8-3.3Q22.2-3.3 24.58-4.75 26.95-6.2 26.95-9.45L26.95-9.45Q26.95-12.6 24.8-14.43 22.65-16.25 19.4-16.25L19.4-16.25 14.7-16.25 14.75-19.95 19.05-20Q21.95-20 23.7-21.5L23.7-21.5Q25.4-23 25.4-25.55L25.4-25.55Q25.4-28.1 23.85-29.58 22.3-31.05 19.75-31.05L19.75-31.05 11.9-31.05 11.9-3.55Q15.35-3.3 17.8-3.3L17.8-3.3ZM47.5 0.5Q43.95 0.5 41.12-1.2 38.3-2.9 36.7-5.88 35.1-8.85 35.1-12.6L35.1-12.6Q35.1-16.35 36.72-19.38 38.35-22.4 41.17-24.13 44-25.85 47.55-25.85L47.55-25.85Q51.1-25.85 53.92-24.15 56.75-22.45 58.35-19.43 59.95-16.4 59.95-12.65L59.95-12.65Q59.95-8.9 58.35-5.9 56.75-2.9 53.9-1.2 51.05 0.5 47.5 0.5L47.5 0.5ZM47.55-3.2Q51.3-3.2 53.57-5.8 55.85-8.4 55.85-12.65L55.85-12.65Q55.85-16.95 53.57-19.55 51.3-22.15 47.55-22.15L47.55-22.15Q45.1-22.15 43.2-20.95 41.3-19.75 40.25-17.6 39.2-15.45 39.2-12.65L39.2-12.65Q39.2-8.4 41.5-5.8 43.8-3.2 47.55-3.2L47.55-3.2ZM76.15 0.5Q72.6 0.5 69.77-1.2 66.95-2.9 65.35-5.88 63.75-8.85 63.75-12.6L63.75-12.6Q63.75-16.35 65.37-19.38 67-22.4 69.82-24.13 72.65-25.85 76.2-25.85L76.2-25.85Q79.75-25.85 82.57-24.15 85.4-22.45 87-19.43 88.6-16.4 88.6-12.65L88.6-12.65Q88.6-8.9 87-5.9 85.4-2.9 82.55-1.2 79.7 0.5 76.15 0.5L76.15 0.5ZM76.2-3.2Q79.95-3.2 82.22-5.8 84.5-8.4 84.5-12.65L84.5-12.65Q84.5-16.95 82.22-19.55 79.95-22.15 76.2-22.15L76.2-22.15Q73.75-22.15 71.85-20.95 69.95-19.75 68.9-17.6 67.85-15.45 67.85-12.65L67.85-12.65Q67.85-8.4 70.15-5.8 72.45-3.2 76.2-3.2L76.2-3.2ZM94.34-36.4L98.34-36.4 98.39-21.95Q99.24-23.65 101.34-24.8 103.44-25.95 105.54-25.95L105.54-25.95Q107.84-25.95 109.69-24.9 111.54-23.85 112.59-22.03 113.64-20.2 113.64-17.9L113.64-17.9Q113.64-15.25 112.39-13.43 111.14-11.6 109.14-10.85L109.14-10.85 112.49-5.1Q112.99-4.25 113.32-3.9 113.64-3.55 114.09-3.55L114.09-3.55Q114.39-3.55 114.67-3.73 114.94-3.9 114.99-4.15L114.99-4.15 118.14-1.95Q117.64-0.85 116.47-0.15 115.29 0.55 113.99 0.55L113.99 0.55Q112.64 0.55 111.54-0.1 110.44-0.75 109.79-1.85L109.79-1.85 105.34-9.65 98.34-9.65 98.34 0 94.34 0 94.34-36.4ZM103.39-13.35Q105.09-13.35 106.89-14.1L106.89-14.1Q108.34-14.7 109.02-15.68 109.69-16.65 109.69-18.1L109.69-18.1Q109.69-19.9 108.54-21.08 107.39-22.25 105.44-22.25L105.44-22.25Q103.24-22.25 101.52-20.7 99.79-19.15 98.99-16.3L98.99-16.3Q98.64-15.05 98.54-13.35L98.54-13.35 103.39-13.35ZM147.14 1Q142.44 1 139.04-1.58 135.64-4.15 134.79-8.3L134.79-8.3 138.24-9.8Q138.94-6.7 141.41-4.75 143.89-2.8 147.24-2.8L147.24-2.8Q150.74-2.8 152.96-4.83 155.19-6.85 155.19-10.05L155.19-10.05Q155.19-11.7 154.54-12.83 153.89-13.95 152.29-14.95 150.69-15.95 147.74-17.15L147.74-17.15Q142.74-19.2 140.54-21.43 138.34-23.65 138.34-26.65L138.34-26.65Q138.34-29.05 139.61-31.03 140.89-33 143.09-34.13 145.29-35.25 147.99-35.25L147.99-35.25Q150.34-35.25 152.26-34.4 154.19-33.55 155.31-32.08 156.44-30.6 156.44-28.85L156.44-28.85Q156.44-26.7 155.04-25.35 153.64-24 151.49-24L151.49-24Q150.84-24 150.49-24.05L150.49-24.05 150.79-27.45Q151.09-27.35 151.24-27.35L151.24-27.35Q151.74-27.35 152.11-27.78 152.49-28.2 152.49-28.8L152.49-28.8Q152.49-29.9 151.19-30.68 149.89-31.45 148.09-31.45L148.09-31.45Q145.79-31.45 144.09-30.1 142.39-28.75 142.39-26.85L142.39-26.85Q142.39-25.15 144.09-23.68 145.79-22.2 149.29-20.75L149.29-20.75Q154.64-18.55 156.99-16.07 159.34-13.6 159.34-10.1L159.34-10.1Q159.34-6.95 157.74-4.42 156.14-1.9 153.36-0.45 150.59 1 147.14 1L147.14 1ZM172.04 0.5Q168.54 0.5 166.76-1.63 164.99-3.75 164.99-7.55L164.99-7.55 164.99-31.45 169.09-31.45 169.09-25 176.74-25 176.74-21.3 169.09-21.3 169.09-7.55Q169.09-5.75 169.84-4.53 170.59-3.3 172.04-3.3L172.04-3.3Q173.49-3.3 174.49-4.13 175.49-4.95 176.04-6.35L176.04-6.35 179.24-4.3Q176.84 0.5 172.04 0.5L172.04 0.5ZM193.43 0.5Q189.88 0.5 187.06-1.2 184.23-2.9 182.63-5.88 181.03-8.85 181.03-12.6L181.03-12.6Q181.03-16.35 182.66-19.38 184.28-22.4 187.11-24.13 189.93-25.85 193.48-25.85L193.48-25.85Q197.03-25.85 199.86-24.15 202.68-22.45 204.28-19.43 205.88-16.4 205.88-12.65L205.88-12.65Q205.88-8.9 204.28-5.9 202.68-2.9 199.83-1.2 196.98 0.5 193.43 0.5L193.43 0.5ZM193.48-3.2Q197.23-3.2 199.51-5.8 201.78-8.4 201.78-12.65L201.78-12.65Q201.78-16.95 199.51-19.55 197.23-22.15 193.48-22.15L193.48-22.15Q191.03-22.15 189.13-20.95 187.23-19.75 186.18-17.6 185.13-15.45 185.13-12.65L185.13-12.65Q185.13-8.4 187.43-5.8 189.73-3.2 193.48-3.2L193.48-3.2ZM221.73-25.85Q223.18-25.85 225.18-25.35L225.18-25.35 225.08-21.4Q223.08-21.95 221.83-21.95L221.83-21.95Q219.48-21.95 218.18-20.85L218.18-20.85Q216.68-19.65 215.58-17.65L215.58-17.65 215.58 0.05 211.48 0.05 211.48-17.65Q211.48-21.55 209.38-23.35L209.38-23.35 212.13-25.9Q212.88-25.45 213.66-24.55 214.43-23.65 214.93-22.5L214.93-22.5Q216.03-23.9 217.18-24.65L217.18-24.65Q219.08-25.85 221.73-25.85L221.73-25.85ZM238.73 0.5Q235.03 0.5 232.4-1.13 229.78-2.75 228.43-5.53 227.08-8.3 227.08-11.75L227.08-11.75Q227.08-15.15 228.38-18.35 229.68-21.55 232.28-23.65 234.88-25.75 238.68-25.75L238.68-25.75Q241.18-25.75 243.33-24.78 245.48-23.8 246.75-21.98 248.03-20.15 248.03-17.75L248.03-17.75Q248.03-13.9 244.88-11.7 241.73-9.5 236.68-9.6L236.68-9.6 231.48-9.7Q232.03-6.6 233.9-4.93 235.78-3.25 238.88-3.25L238.88-3.25Q242.93-3.25 246.58-5.95L246.58-5.95 248.83-3.1Q244.08 0.5 238.73 0.5L238.73 0.5ZM236.68-13.2Q240.03-13.2 241.98-14.35 243.93-15.5 243.93-17.8L243.93-17.8Q243.93-19.85 242.45-20.95 240.98-22.05 238.93-22.05L238.93-22.05Q236.63-22.05 234.93-20.68 233.23-19.3 232.33-17.25 231.43-15.2 231.28-13.2L231.28-13.2 236.68-13.2Z" opacity="1" transform="matrix(1,0,0,1,0,0)" fill="#000000" class="wordmark-text-0" data-fill-palette-color="primary" id="text-0"></path></svg></g></svg></g></svg></g></svg></g><g><svg viewBox="0 0 62.36963093378718 82.68215626289181" height="82.68215626289181" width="62.36963093378718"><g><svg version="1.1" xmlns="http://www.w3.org/2000/svg" xmlns:xlink="http://www.w3.org/1999/xlink" x="0" y="0" viewBox="0 0 75.433 100" enable-background="new 0 0 75.433 100" xml:space="preserve" id="icon-0" width="62.36963093378718" height="82.68215626289181" class="icon-icon-0" data-fill-palette-color="accent"><path fill="#5850ec" d="M8.431 8.148" data-fill-palette-color="accent"></path><path fill="#5850ec" d="M71.862 0H9.725C7.761 0 4.947 1.064 3.473 2.362L2.681 3.06C1.206 4.36 0 7.031 0 8.995V96.428A3.583 3.583 0 0 0 3.572 100H65.704A3.58 3.58 0 0 0 69.276 96.428V11.722A3.58 3.58 0 0 0 65.704 8.15H24.172A2.352 2.352 0 1 0 19.469 8.15V32.667L13.552 26.89 8.432 32.667V8.148H3.572C3.546 8.148 3.523 8.154 3.497 8.156L7.34 3.755H71.803V93.04H71.86A3.585 3.585 0 0 0 75.433 89.468V3.573A3.58 3.58 0 0 0 71.862 0" data-fill-palette-color="accent"></path></svg></g></svg></g></svg></g><defs></defs></svg><rect width="395.52" height="69.2828534568248" fill="none" stroke="none" visibility="hidden"></rect></g></svg></g></svg>